<svg width="394" height="370" viewBox="0 0 394 370" fill="none" xmlns="http://www.w3.org/2000/svg">
<path d="M520.201 56.7239C504.577 64.7583 489.462 74.4086 479.438 79.1514C462.796 87.0212 382.972 132.804 367.361 109.419C346.189 77.73 400.486 20.5468 426.509 -8H212.311C199.581 0.558041 186.797 8.90662 173.813 17.0158C169.19 19.9034 134.136 43.438 137.955 19.8136C139.603 9.63974 145.459 0.273769 151.033 -7.71573C151.1 -7.8055 151.167 -7.91023 151.234 -8H88.5892C47.5318 37.7227 -36.7805 124.201 17.8778 147.182C63.9468 166.542 186.06 85.7644 236.404 75.2165C363.1 48.6596 254.521 116.286 209.416 160.887C181.598 188.401 83.4436 323.874 60.0206 381.716C65.8495 389.316 74.9481 396.692 88.5892 403.664C112.816 416.023 144.695 407.749 174.912 400.388C224.264 325.46 312.154 153.855 347.543 176.955C361.8 186.262 288.369 237.131 320.917 265.827C333.031 276.495 361.412 246.003 372.48 269.224C374.477 273.428 327.081 315.44 331.53 335.1C338.618 366.474 433.812 337.598 453.938 336.476C459.486 336.162 465.342 336.237 471.425 336.521C473.65 284.021 410.509 269.358 418.549 214.913C427.406 154.917 544.039 173.26 549.775 101.31C552.173 71.3115 534.968 65.0426 520.201 56.7239Z" fill="white" fill-opacity="0.09"/>
</svg>
