<svg width="47" height="48" viewBox="0 0 47 48" fill="none" xmlns="http://www.w3.org/2000/svg">
<path d="M18.0932 32.6143C18.1844 32.2004 18.5938 31.9388 19.0077 32.03L24.6445 33.2719C25.0584 33.3631 25.32 33.7726 25.2288 34.1865L23.495 42.0557C23.3407 42.7563 22.3949 42.8808 22.0645 42.244L20.8369 39.8786C20.6164 39.4536 20.0649 39.3321 19.6863 39.625L17.5783 41.2556C17.0108 41.6946 16.205 41.1841 16.3594 40.4835L18.0932 32.6143Z" fill="#7550C5"/>
<path d="M32.8755 27.9323C32.5627 27.6464 32.0773 27.6682 31.7914 27.981L27.8974 32.2417C27.6115 32.5545 27.6333 33.0399 27.9461 33.3258L33.8942 38.762C34.4237 39.246 35.2687 38.8033 35.1723 38.0924L34.8142 35.4516C34.7498 34.9772 35.1308 34.5603 35.6091 34.5818L38.2714 34.7015C38.9881 34.7337 39.3531 33.8524 38.8236 33.3684L32.8755 27.9323Z" fill="#7550C5"/>
<path d="M13.921 14.0124C14.1184 12.9579 15.0498 12.2012 16.1223 12.2238L19.3067 12.291C19.7644 12.3007 20.2137 12.1668 20.5915 11.9081L23.2197 10.1089C24.1049 9.5029 25.2986 9.62639 26.0409 10.4008L28.2451 12.7C28.562 13.0305 28.9743 13.2535 29.4243 13.3377L32.555 13.9239C33.6095 14.1213 34.3662 15.0527 34.3436 16.1252L34.2764 19.3096C34.2668 19.7673 34.4006 20.2166 34.6593 20.5944L36.4585 23.2226C37.0645 24.1078 36.941 25.3015 36.1666 26.0439L33.8674 28.2481C33.5369 28.5649 33.3139 28.9773 33.2297 29.4273L32.6435 32.558C32.4461 33.6124 31.5147 34.3692 30.4422 34.3465L27.2578 34.2794C26.8001 34.2697 26.3508 34.4036 25.973 34.6622L23.3448 36.4615C22.4596 37.0675 21.2659 36.944 20.5235 36.1696L18.3193 33.8704C18.0025 33.5399 17.5901 33.3169 17.1401 33.2326L14.0094 32.6465C12.955 32.449 12.1983 31.5176 12.2209 30.4451L12.288 27.2607C12.2977 26.803 12.1638 26.3537 11.9052 25.976L10.1059 23.3477C9.49995 22.4625 9.62344 21.2689 10.3978 20.5265L12.697 18.3223C13.0275 18.0054 13.2505 17.5931 13.3348 17.1431L13.921 14.0124Z" fill="white"/>
<circle cx="23.2513" cy="23.2685" r="8.49608" transform="rotate(-17.5746 23.2513 23.2685)" stroke="#E6DAFF" stroke-width="1.42515"/>
<path d="M21.4358 18.9743C21.5104 18.5345 22.0512 18.3632 22.3654 18.6799L24.0192 20.3467C24.1403 20.4688 24.3116 20.527 24.482 20.5038L26.7915 20.1905C27.2264 20.1314 27.5508 20.5819 27.357 20.9757L26.3098 23.1034C26.2354 23.2547 26.2347 23.4318 26.3079 23.5837L27.343 25.7291C27.5357 26.1284 27.1992 26.5793 26.7615 26.5083L24.4751 26.1374C24.3033 26.1095 24.1285 26.1649 24.0041 26.2866L22.3482 27.9062C22.0312 28.2162 21.4965 28.0412 21.4241 27.6038L21.0353 25.2537C21.0078 25.0873 20.9053 24.9429 20.7573 24.8621L18.6761 23.7252C18.291 23.5148 18.2969 22.9597 18.6864 22.7576L20.7552 21.6842C20.9079 21.605 21.0145 21.4588 21.0432 21.2893L21.4358 18.9743Z" fill="#BA9AFF"/>
</svg>
