<svg width="901" height="594" viewBox="0 0 901 594" fill="none" xmlns="http://www.w3.org/2000/svg">
<path d="M-14.3004 -526.517L-245.116 -545.622C-203.63 -489.623 -451.269 -172.121 -63.1204 -82.7798C113.803 46.9499 -223.544 21.4438 -107.939 232.212C-51.8764 334.389 154.47 343.693 180.465 439.861C212.413 558.065 -12.2237 571.307 -12.2237 571.307L119.012 725.615C280.807 634.945 349.183 789.215 442.351 736.394C591.732 651.694 448.728 523.522 540.379 433.244C627.001 347.891 1047.5 398.593 1013.5 253.5C909.653 -189.659 1179.61 -15.2425 1202.42 -73.6221C1217.5 -112.197 1241.82 -122.99 1270.35 -131.548L-14.2827 -526.541L-14.3004 -526.517Z" fill="white" fill-opacity="0.14"/>
</svg>
