<svg width="231" height="407" viewBox="0 0 231 407" fill="none" xmlns="http://www.w3.org/2000/svg">
<path d="M164.217 347.314H144.371V387.005H164.217V347.314Z" fill="#F9CE8B"/>
<path d="M164.217 365.661H144.371V387.006H164.217V365.661Z" fill="#E40023"/>
<path d="M91.4277 347.81L89.2129 387.439L109.027 388.546L111.242 348.918L91.4277 347.81Z" fill="#F9CE8B"/>
<path fill-rule="evenodd" clip-rule="evenodd" d="M109.025 393.046L89.2207 391.726L90.541 363.408L110.359 364.729L109.025 393.046Z" fill="#E40023"/>
<path fill-rule="evenodd" clip-rule="evenodd" d="M109.579 383.459L111.325 402.549C111.408 403.429 111.147 404.227 110.542 404.887C109.95 405.547 109.18 405.891 108.3 405.891L49.7935 406.304C48.1294 406.317 46.7678 404.997 46.7128 403.333C46.589 398.932 47.0979 391.161 52.2141 390.432C59.3933 389.401 74.5356 386.939 74.5356 386.939L89.9804 376.899L90.228 369.514L110.074 370.93L109.579 383.459Z" fill="black"/>
<path fill-rule="evenodd" clip-rule="evenodd" d="M144.221 380.376L138.527 402.395C138.28 403.344 138.472 404.252 139.064 405.036C139.655 405.806 140.508 406.219 141.484 406.219L185.206 406.301C186.058 406.301 186.801 405.998 187.392 405.38C187.998 404.761 188.286 404.018 188.259 403.165C188.176 399.589 187.516 394.033 184.422 392.314C179.746 389.715 170.737 386.964 170.737 386.964L164.37 378.313L164.232 370.749L144.386 370.598L144.221 380.376Z" fill="black"/>
<path fill-rule="evenodd" clip-rule="evenodd" d="M74.4219 386.869C74.4219 386.869 80.6246 375.757 84.0354 373.295C88.2577 370.242 92.0398 374.437 87.5287 378.563C83.0039 382.702 74.4219 386.869 74.4219 386.869Z" fill="black"/>
<path fill-rule="evenodd" clip-rule="evenodd" d="M170.159 382.883C170.159 382.883 171.411 375.401 167.147 373.929C162.884 372.458 160.504 373.751 160.752 377.808C161 381.865 167.862 391.547 167.862 391.547L173.914 390.186L170.159 382.883Z" fill="black"/>
<path fill-rule="evenodd" clip-rule="evenodd" d="M47.0555 400.224C47.7844 390.363 52.0754 389.675 59.9147 388.795V400.183H111.104L111.324 402.534C111.407 403.415 111.146 404.212 110.54 404.872C109.949 405.533 109.179 405.876 108.299 405.876L59.9285 406.193L50.26 406.275C50.26 406.275 48.3758 406.165 47.5643 404.817C46.9042 403.772 46.9729 401.668 47.0555 400.224Z" fill="white"/>
<path fill-rule="evenodd" clip-rule="evenodd" d="M49.1987 406.456C46.9707 405.892 46.8057 404.435 46.7781 404.228C46.7644 404.104 46.4206 403.444 46.6131 400.171C47.1908 390.434 51.578 389.457 59.8575 388.371C59.9813 388.357 60.105 388.398 60.2013 388.481C60.2976 388.563 60.3526 388.687 60.3526 388.811V399.772H111.102C111.322 399.772 111.515 399.937 111.528 400.157L111.721 402.193C111.776 402.825 111.79 403.527 111.556 404.159C111.157 405.26 110.098 406.264 107.884 406.332C87.7903 406.47 70.8601 406.608 50.8354 406.608C50.2165 406.594 49.8176 406.608 49.1987 406.456ZM47.4246 403.155C47.4521 404.82 48.8274 405.865 50.5053 405.851L107.815 405.439C108.709 405.439 109.74 405.136 110.332 404.49C110.923 403.829 110.909 402.99 110.827 402.11L110.689 400.625H59.9125C59.6787 400.625 59.4724 400.432 59.4724 400.185V389.292C49.9139 389.732 47.2733 393.294 47.4246 403.155Z" fill="black"/>
<path fill-rule="evenodd" clip-rule="evenodd" d="M138.527 402.399L139.105 400.184H161.66C161.963 397.31 162.747 394.257 164.425 392.001C166.969 388.604 169.857 387.586 171.975 387.353C174.602 388.205 180.805 390.296 184.422 392.304C186.732 393.583 187.681 397.021 188.053 400.171H188.08C188.121 400.569 188.149 401.009 188.163 401.436C188.204 402.041 188.231 402.619 188.245 403.155C188.273 404.008 187.97 404.75 187.379 405.369C186.787 405.988 186.045 406.291 185.192 406.291H161.674C161.674 406.277 161.674 406.263 161.674 406.236L141.484 406.194C140.508 406.194 139.669 405.782 139.064 405.012C138.472 404.255 138.28 403.348 138.527 402.399Z" fill="white"/>
<path fill-rule="evenodd" clip-rule="evenodd" d="M184.56 406.744C169.72 406.744 155.568 406.552 140.728 406.593C138.61 406.593 137.771 404.434 138.033 402.577L138.679 400.074C138.734 399.881 138.899 399.744 139.105 399.744H161.276C161.564 397.351 162.28 394.132 164.081 391.739C166.749 388.164 169.83 387.146 171.934 386.926C171.989 386.926 172.058 386.926 172.113 386.94C174.657 387.765 180.97 389.896 184.642 391.932C187.503 393.527 188.466 398.217 188.617 401.422C188.837 404.434 188.658 406.827 184.56 406.744ZM187.806 402.701C187.792 402.316 187.764 401.903 187.737 401.49C187.599 398.63 186.705 394.091 184.202 392.702C180.64 390.722 174.492 388.645 171.921 387.806C169.981 388.026 167.203 388.989 164.755 392.262C162.981 394.641 162.321 397.901 162.073 400.225C162.046 400.445 161.867 400.61 161.647 400.61H139.422L139.078 401.958C138.83 402.907 138.72 403.952 139.312 404.722C139.669 405.176 140.041 405.534 140.632 405.699C141.031 405.809 141.636 405.795 142.021 405.795C156.269 405.823 170.49 405.878 184.739 405.878C185.605 405.878 186.54 405.699 187.132 405.08C187.751 404.461 187.847 403.567 187.806 402.701Z" fill="black"/>
<path fill-rule="evenodd" clip-rule="evenodd" d="M89.7703 261.577L79.5379 357.121C79.4416 357.987 79.6892 358.771 80.2531 359.431C80.8169 360.092 81.5596 360.449 82.4398 360.49L115.943 362.031C117.538 362.1 118.9 360.958 119.12 359.376L129.132 284.531L135.335 285.549L136.903 359.198C136.916 360.037 137.233 360.765 137.852 361.343C138.457 361.921 139.199 362.21 140.038 362.182L171.107 361.412C172.647 361.371 173.913 360.215 174.078 358.675L184.2 262.554L89.7703 261.577Z" fill="#2F2483"/>
<path fill-rule="evenodd" clip-rule="evenodd" d="M143.782 0.0326911C148.719 -0.22862 152.818 1.10544 152.914 3.00339C153.01 4.90133 149.091 6.64799 144.14 6.90931C139.202 7.17062 135.104 5.83655 135.007 3.93861C134.911 2.05442 138.831 0.294002 143.782 0.0326911Z" fill="#2F2483"/>
<path fill-rule="evenodd" clip-rule="evenodd" d="M95.3965 184.518L107.266 170.544C112.561 164.314 121.459 161.949 128.982 159.721L129.848 159.459C129.958 159.459 130.041 159.473 130.096 159.473C131.237 159.528 132.393 159.556 133.562 159.556C144.812 159.556 155.402 156.887 164.63 152.198L164.74 152.143L188.382 162.444C196.235 165.868 192.604 198.161 191.559 199.729L189.579 285.838C189.524 288.368 189.18 290.638 187.516 292.536C185.838 294.433 183.665 295.424 181.134 295.424H109.741C105.051 295.424 101.489 291.587 101.228 286.897L95.3965 184.518Z" fill="#E40023"/>
<path fill-rule="evenodd" clip-rule="evenodd" d="M188.519 184.517L176.65 170.544C171.355 164.314 162.457 161.948 154.934 159.72L154.067 159.459C153.957 159.459 153.875 159.473 153.82 159.473C152.678 159.528 156.57 159.555 150.354 159.555C144.151 159.555 128.514 160.559 119.285 155.869L119.175 155.814L95.5335 162.444C92.5491 163.282 86.1814 169.183 86.1814 173.116L70.7502 285.837C70.4064 288.341 71.1491 290.637 72.8132 292.535C74.4911 294.433 76.6779 295.423 79.1947 295.423H159.101C163.791 295.423 166.679 291.504 167.614 286.896L188.519 184.517Z" fill="#E40023"/>
<path fill-rule="evenodd" clip-rule="evenodd" d="M193.058 65.7314C194.035 75.7575 193.058 98.6567 193.058 108.71C193.058 138.651 166.968 162.926 134.8 162.926C102.617 162.926 76.541 138.651 76.541 108.71C76.541 104.062 77.1737 99.5506 78.3565 95.2459C100.444 94.847 128.679 93.5542 143.794 93.0866C146.779 92.9903 149.323 92.3302 151.854 90.7348L179.168 73.557C183.94 72.388 190.459 69.4586 193.058 65.7314Z" fill="#FDD89E"/>
<path fill-rule="evenodd" clip-rule="evenodd" d="M211.213 88.2728C229.436 99.0828 215.504 136.505 193.788 134.346C188.451 133.823 183.899 131.623 181.203 126.878L181.148 126.782C184.339 120.565 186.127 113.592 186.127 106.235C186.127 103.085 186.237 98.5052 186.333 93.5128C193.65 85.811 204.006 83.9955 211.213 88.2728Z" fill="#FDD89E"/>
<path fill-rule="evenodd" clip-rule="evenodd" d="M83.5281 134.484C81.5752 134.47 79.6222 133.989 77.7242 132.916C72.333 129.863 67.1068 122.643 66.5154 113.497C65.9928 105.547 69.156 99.0282 73.7908 95.3149C75.2762 95.3011 76.789 95.2736 78.3432 95.2461C77.1604 99.5509 76.5277 104.062 76.5277 108.711C76.5415 118.035 79.0721 126.824 83.5281 134.484Z" fill="#F9CE8B"/>
<path fill-rule="evenodd" clip-rule="evenodd" d="M146.489 5.93342C183.94 5.8509 193.058 35.7229 193.058 65.7325C190.445 69.4733 183.94 72.389 179.153 73.558C141.703 79.4307 105.642 79.2656 73.2948 79.4307V49.5036C76.5406 16.8947 119.671 4.73689 146.489 5.93342Z" fill="#009EE3"/>
<path fill-rule="evenodd" clip-rule="evenodd" d="M73.2973 79.4449C67.1908 81.838 52.0348 86.8166 48.4315 90.695C46.4372 92.8405 47.8676 94.4359 49.7655 94.7247C62.9686 96.6502 119.838 93.8583 143.783 93.1019C146.767 93.0056 149.311 92.3454 151.842 90.75L179.156 73.5723C141.72 79.4449 105.659 79.2661 73.2973 79.4449Z" fill="#2F2483"/>
<path fill-rule="evenodd" clip-rule="evenodd" d="M144.895 5.87623C145.431 5.88998 145.967 5.90373 146.504 5.93124C183.954 5.84872 193.072 35.7207 193.072 65.7303C195.754 65.2627 214.28 66.6655 218.804 63.0897C213.853 12.2302 181.093 2.09409 144.895 5.87623Z" fill="#2F2483"/>
<path fill-rule="evenodd" clip-rule="evenodd" d="M193.058 65.7453L193.237 65.704C195.685 65.3602 209.397 64.6863 218.79 63.0771C221.005 71.9067 220.592 83.9821 216.7 93.4443C214.788 89.5934 201.31 79.4297 185.109 106.249C186.278 81.589 184.627 78.4257 183.555 72.1268C187.351 70.6552 191.188 68.3996 193.058 65.7453Z" fill="#C67004"/>
<path fill-rule="evenodd" clip-rule="evenodd" d="M160.039 91.2979C168.401 91.2979 174.246 95.3688 175.181 104.515C176.13 113.661 170.203 116.824 161.841 116.824C156.023 116.824 148.5 116.769 145.956 112.299C144.842 110.332 144.883 106.88 144.883 104.515C144.897 96.7304 151.677 91.2979 160.039 91.2979Z" fill="white"/>
<path fill-rule="evenodd" clip-rule="evenodd" d="M160.037 91.2977C168.399 91.2977 174.244 95.3687 175.179 104.515C175.551 108.077 174.877 110.731 173.419 112.643C174.216 110.91 174.533 108.737 174.258 106.041C173.309 96.8953 167.477 92.8243 159.115 92.8243C153.642 92.8243 148.856 95.1486 146.187 98.9308C148.553 94.2547 153.862 91.2977 160.037 91.2977Z" fill="black"/>
<path fill-rule="evenodd" clip-rule="evenodd" d="M102.342 94.7217C93.9797 94.7217 88.1346 98.7926 87.1993 107.939C86.2504 117.084 92.178 120.248 100.54 120.248C106.358 120.248 111.914 118.914 114.458 114.444C115.572 112.477 115.531 109.025 115.531 106.659C115.531 98.8614 110.704 94.7217 102.342 94.7217Z" fill="white"/>
<path fill-rule="evenodd" clip-rule="evenodd" d="M102.342 94.7217C93.9804 94.7217 88.1353 98.7926 87.2001 107.939C86.8287 111.501 87.5026 114.155 88.9605 116.067C88.1628 114.334 87.8464 112.161 88.1215 109.465C89.0705 100.319 94.9019 96.2483 103.264 96.2483C108.366 96.2483 112.148 97.7886 114.321 100.759C112.396 96.7847 108.256 94.7217 102.342 94.7217Z" fill="black"/>
<path fill-rule="evenodd" clip-rule="evenodd" d="M160.561 113.689C165.705 113.689 169.9 109.577 169.9 104.53C169.9 99.4823 165.705 95.3701 160.561 95.3701C155.417 95.3701 151.223 99.4823 151.223 104.53C151.223 109.577 155.417 113.689 160.561 113.689Z" fill="#2F2483"/>
<path fill-rule="evenodd" clip-rule="evenodd" d="M166.432 101.82C168.152 101.82 169.541 100.445 169.541 98.7671C169.541 97.0892 168.138 95.7139 166.432 95.7139C164.713 95.7139 163.324 97.0892 163.324 98.7671C163.324 100.459 164.713 101.82 166.432 101.82Z" fill="white"/>
<path fill-rule="evenodd" clip-rule="evenodd" d="M104.655 115.753C109.799 115.753 113.993 111.641 113.993 106.593C113.993 101.546 109.799 97.4336 104.655 97.4336C99.5112 97.4336 95.3164 101.546 95.3164 106.593C95.3164 111.641 99.5112 115.753 104.655 115.753Z" fill="#2F2483"/>
<path fill-rule="evenodd" clip-rule="evenodd" d="M128.749 121.915C131.747 121.598 134.002 119.687 133.782 117.665C133.562 115.643 130.963 114.268 127.965 114.584C124.966 114.901 122.711 116.812 122.931 118.834C123.137 120.856 125.75 122.245 128.749 121.915Z" fill="#F8B672"/>
<path fill-rule="evenodd" clip-rule="evenodd" d="M206.387 117.305C207.707 113.262 207.996 110.044 204.021 106.894C200.06 103.759 194.105 109.906 192.785 113.95C191.464 117.993 192.716 121.569 195.632 122.862C198.561 124.155 205.066 121.335 206.387 117.305Z" fill="#F8B672"/>
<path fill-rule="evenodd" clip-rule="evenodd" d="M76.6098 105.905C71.9337 107.377 71.7825 116.11 73.6116 120.209C74.9457 123.193 77.1187 125.105 79.443 125.669C77.5588 120.332 76.5273 114.625 76.5273 108.711C76.5411 107.762 76.5686 106.827 76.6098 105.905Z" fill="#F8B672"/>
<path fill-rule="evenodd" clip-rule="evenodd" d="M120.978 131.198C120.662 130.414 121.047 129.534 121.831 129.218C122.615 128.901 123.495 129.286 123.811 130.07C124.636 132.133 126.424 133.343 128.528 133.866C130.151 134.265 131.939 134.279 133.645 133.962C135.35 133.646 136.959 133.027 138.211 132.147C139.614 131.17 140.535 129.905 140.535 128.475C140.535 127.636 141.223 126.948 142.062 126.948C142.901 126.948 143.588 127.636 143.588 128.475C143.588 131.005 142.144 133.123 139.957 134.65C138.348 135.764 136.327 136.562 134.195 136.961C132.077 137.346 129.821 137.332 127.786 136.823C124.788 136.067 122.216 134.292 120.978 131.198Z" fill="black"/>
<path fill-rule="evenodd" clip-rule="evenodd" d="M109.438 104.874C111.157 104.874 112.547 103.499 112.547 101.821C112.547 100.143 111.144 98.7676 109.438 98.7676C107.719 98.7676 106.33 100.143 106.33 101.821C106.33 103.512 107.733 104.874 109.438 104.874Z" fill="white"/>
<path fill-rule="evenodd" clip-rule="evenodd" d="M1.15996 150.15C0.348522 149.944 -0.160344 149.119 0.0459544 148.307C0.252253 147.482 1.07744 146.987 1.88888 147.193L18.324 151.264C19.1354 151.471 19.6443 152.296 19.438 153.107C19.2317 153.919 18.4065 154.427 17.595 154.221L1.15996 150.15Z" fill="black"/>
<path fill-rule="evenodd" clip-rule="evenodd" d="M5.65849 166.447C4.8608 166.708 3.99436 166.282 3.73305 165.484C3.47174 164.686 3.8981 163.82 4.69579 163.558L17.0737 159.391C17.8714 159.13 18.7378 159.556 18.9991 160.354C19.2605 161.152 18.8341 162.018 18.0364 162.279L5.65849 166.447Z" fill="black"/>
<path fill-rule="evenodd" clip-rule="evenodd" d="M10.8432 137.51C10.2243 136.933 10.1968 135.97 10.7606 135.351C11.3383 134.732 12.301 134.705 12.9199 135.268L22.4784 144.167C23.0973 144.744 23.1248 145.707 22.5609 146.326C21.9833 146.945 21.0206 146.972 20.4017 146.409L10.8432 137.51Z" fill="black"/>
<path fill-rule="evenodd" clip-rule="evenodd" d="M33.7695 234.498L36.9741 224.871C42.9705 226.493 50.3284 225.544 55.7059 222.821L57.3563 232.215C49.682 235.571 40.6324 235.887 33.7695 234.498Z" fill="#009EE3"/>
<path fill-rule="evenodd" clip-rule="evenodd" d="M137.812 213.498L131.334 221.282C126.3 217.637 118.832 215.712 112.85 216.358L114.624 206.979C122.972 206.552 131.87 209.757 137.812 213.498Z" fill="#009EE3"/>
<path fill-rule="evenodd" clip-rule="evenodd" d="M146.874 238.375L138.691 234.992L130.494 231.609L131.182 222.779L131.869 213.949L140.479 211.873L149.088 209.796L153.723 217.346L158.358 224.897L155.965 227.703L149.047 222.311L143.298 223.852L141.964 229.243L148.525 236.422L146.874 238.375Z" fill="#009EE3"/>
<path fill-rule="evenodd" clip-rule="evenodd" d="M71.4666 206.013L90.9412 201.585C91.7388 201.406 92.509 201.915 92.6603 202.712L93.4443 206.825C93.5955 207.622 93.0729 208.434 92.2752 208.613L72.8006 213.041C72.003 213.22 71.2328 212.711 71.0815 211.913L70.2975 207.801C70.1463 207.003 70.6689 206.192 71.4666 206.013Z" fill="#009EE3"/>
<path fill-rule="evenodd" clip-rule="evenodd" d="M23.1643 178.274C25.6674 177.6 28.4455 179.856 29.367 183.308C30.2885 186.76 28.9956 190.102 26.4788 190.776C23.9757 191.45 21.1975 189.194 20.2761 185.742C19.3684 182.29 20.6474 178.948 23.1643 178.274Z" fill="#F28C27"/>
<path fill-rule="evenodd" clip-rule="evenodd" d="M26.8505 171.645C29.3124 170.82 32.7644 175.455 34.5524 182.015C36.3403 188.575 35.7901 194.558 33.3283 195.383C30.8665 196.208 27.4145 191.573 25.6265 185.013C23.8386 178.453 24.3887 172.47 26.8505 171.645Z" fill="#009EE3"/>
<path fill-rule="evenodd" clip-rule="evenodd" d="M119.411 151.306C116.895 151.952 115.602 155.294 116.496 158.746C117.404 162.198 120.168 164.467 122.685 163.821C125.202 163.175 126.494 159.833 125.6 156.381C124.693 152.915 121.928 150.645 119.411 151.306Z" fill="#F28C27"/>
<path fill-rule="evenodd" clip-rule="evenodd" d="M113.495 147.317C110.937 147.812 110.236 153.547 111.914 160.121C113.592 166.709 117.016 171.646 119.574 171.151C122.132 170.656 122.834 164.921 121.156 158.347C119.478 151.773 116.04 146.835 113.495 147.317Z" fill="#009EE3"/>
<path fill-rule="evenodd" clip-rule="evenodd" d="M33.4257 149.213L95.219 132.42C101.669 130.674 108.477 134.483 110.348 140.892L122.175 181.409C124.046 187.818 120.305 194.502 113.855 196.263L52.0614 213.055C45.6111 214.802 38.8033 210.992 36.9328 204.583L25.105 164.066C23.2346 157.644 26.9755 150.96 33.4257 149.213Z" fill="#FF8002"/>
<path fill-rule="evenodd" clip-rule="evenodd" d="M39.323 123.729C41.441 123.316 43.4902 124.705 43.9028 126.837C44.3154 128.955 42.9264 131.004 40.7946 131.417C38.6766 131.829 36.6274 130.44 36.2148 128.322C35.8159 126.191 37.205 124.141 39.323 123.729Z" fill="black"/>
<path fill-rule="evenodd" clip-rule="evenodd" d="M42.9113 130.234C42.4987 130.674 41.9898 131.018 41.3984 131.238L47.7112 145.322L53.1987 143.836L42.9113 130.234Z" fill="black"/>
<path fill-rule="evenodd" clip-rule="evenodd" d="M73.3642 115.049C71.3288 115.751 70.2422 117.979 70.9437 120.028C71.6451 122.063 73.8731 123.15 75.9223 122.448C77.9578 121.747 79.0443 119.519 78.3429 117.47C77.6277 115.434 75.3997 114.348 73.3642 115.049Z" fill="black"/>
<path fill-rule="evenodd" clip-rule="evenodd" d="M73.5024 122.489C74.0801 122.668 74.6852 122.709 75.3041 122.599L76.817 137.412L71.4395 138.869L73.5024 122.489Z" fill="black"/>
<path fill-rule="evenodd" clip-rule="evenodd" d="M66.6924 196.593C66.2385 195.878 66.4448 194.943 67.1462 194.489C67.8614 194.035 68.7966 194.241 69.2505 194.943C70.1169 196.29 71.1209 197.157 72.1524 197.652C73.0051 198.051 73.8853 198.202 74.738 198.12C75.5907 198.051 76.4021 197.748 77.1311 197.281C77.9975 196.73 78.7127 195.933 79.1528 194.97C79.5104 194.214 80.4181 193.884 81.1883 194.241C81.9447 194.599 82.2748 195.506 81.9172 196.277C81.2158 197.762 80.1155 198.986 78.7815 199.852C77.6537 200.581 76.3609 201.035 74.9993 201.159C73.6378 201.283 72.2212 201.063 70.8596 200.416C69.333 199.687 67.8889 198.45 66.6924 196.593Z" fill="black"/>
<path fill-rule="evenodd" clip-rule="evenodd" d="M68.3314 153.436C88.246 148.031 106.552 152.047 109.22 162.43C111.888 172.8 97.9008 185.604 77.9861 191.009C58.0714 196.414 39.7659 192.398 37.0978 182.015C34.4297 171.645 48.4167 158.841 68.3314 153.436Z" fill="black"/>
<path fill-rule="evenodd" clip-rule="evenodd" d="M54.2338 163.299C61.7568 161.593 69.2386 166.297 70.9577 173.82C72.6631 181.343 67.9595 188.825 60.4365 190.544C52.9135 192.249 45.4317 187.545 43.7126 180.022C42.0072 172.499 46.7108 165.018 54.2338 163.299Z" fill="white"/>
<path fill-rule="evenodd" clip-rule="evenodd" d="M85.5642 154.99C93.0872 153.285 100.569 157.988 102.288 165.511C103.994 173.034 99.29 180.516 91.7669 182.235C84.2439 183.94 76.7622 179.237 75.043 171.714C73.3239 164.191 78.0412 156.709 85.5642 154.99Z" fill="white"/>
<path fill-rule="evenodd" clip-rule="evenodd" d="M53.9572 169.348C54.7549 169.169 55.5664 169.114 56.3365 169.197C55.1262 170.132 54.4936 171.727 54.8512 173.323C55.3463 175.509 57.5331 176.885 59.7198 176.39C61.0676 176.087 62.1129 175.138 62.5942 173.942C62.7318 174.285 62.8418 174.643 62.9243 175.001C63.8458 179.044 61.3152 183.06 57.2717 183.981C53.2283 184.903 49.2124 182.372 48.2909 178.329C47.3969 174.272 49.9275 170.256 53.9572 169.348Z" fill="black"/>
<path fill-rule="evenodd" clip-rule="evenodd" d="M85.2882 161.03C86.0859 160.851 86.8974 160.796 87.6676 160.878C86.4573 161.814 85.8247 163.409 86.1822 165.004C86.6774 167.191 88.8641 168.566 91.0509 168.071C92.3987 167.769 93.4439 166.82 93.9253 165.623C94.0628 165.967 94.1729 166.325 94.2554 166.682C95.1768 170.726 92.6462 174.742 88.6028 175.663C84.5593 176.585 80.5434 174.054 79.6219 170.01C78.7142 165.967 81.2448 161.951 85.2882 161.03Z" fill="black"/>
<path fill-rule="evenodd" clip-rule="evenodd" d="M151.249 211.408C149.131 210.074 130.812 204.242 130.564 208.946C130.358 212.824 139.806 213.141 139.16 215.093C138.486 217.129 134.896 217.225 131.486 216.95C127.071 216.593 118.516 212.975 117.787 215.066C117.402 216.18 119.424 218.229 122.326 219.825C122.298 220.815 122.505 221.64 122.904 222.328C122.587 225.422 123.908 227.086 125.641 227.98L125.365 227.925C124.155 233.385 135.089 232.739 135.089 232.739L150.699 233.289L151.249 211.408Z" fill="#FDD89E"/>
<path fill-rule="evenodd" clip-rule="evenodd" d="M122.052 219.549C122.08 219.521 122.107 219.494 122.121 219.48C122.204 219.411 122.314 219.37 122.424 219.356C122.534 219.342 122.644 219.37 122.74 219.425C123.909 220.057 125.436 220.745 127.114 221.158C128.393 221.474 129.754 221.639 131.143 221.529C131.295 221.515 131.432 221.57 131.542 221.653C131.652 221.749 131.721 221.873 131.735 222.024C131.748 222.175 131.693 222.313 131.611 222.423C131.515 222.533 131.391 222.602 131.24 222.616C129.727 222.739 128.255 222.561 126.88 222.217C125.119 221.777 123.524 221.075 122.3 220.415L122.231 220.374C122.094 220.305 122.011 220.181 121.97 220.044C121.942 219.934 121.942 219.824 121.97 219.714V219.7L122.011 219.631C121.997 219.617 122.025 219.59 122.052 219.549ZM124.748 227.319L124.789 227.278C124.886 227.209 124.996 227.154 125.106 227.154C125.216 227.154 125.326 227.182 125.436 227.237C126.343 227.814 127.361 228.131 128.365 228.282C129.823 228.516 131.253 228.406 132.175 228.282C132.326 228.268 132.464 228.309 132.574 228.392C132.684 228.474 132.766 228.598 132.78 228.75C132.794 228.901 132.752 229.038 132.67 229.148C132.587 229.258 132.464 229.341 132.312 229.355C131.308 229.492 129.754 229.602 128.159 229.355C127.031 229.176 125.876 228.805 124.831 228.144C124.707 228.062 124.624 227.938 124.597 227.801C124.569 227.663 124.583 227.512 124.665 227.388L124.72 227.319H124.748ZM122.231 221.969C122.204 222.079 122.217 222.203 122.272 222.327C122.479 222.753 122.754 223.166 123.084 223.537C123.414 223.908 123.813 224.238 124.267 224.541C125.147 225.132 126.22 225.586 127.416 225.889C128.613 226.191 129.933 226.356 131.322 226.356C131.473 226.356 131.611 226.301 131.707 226.191C131.803 226.095 131.872 225.958 131.872 225.806C131.872 225.655 131.817 225.517 131.707 225.421C131.611 225.325 131.473 225.256 131.322 225.256C130.029 225.256 128.805 225.105 127.705 224.83C126.618 224.555 125.656 224.142 124.872 223.62C124.5 223.372 124.17 223.097 123.909 222.794C123.634 222.506 123.428 222.175 123.263 221.845C123.194 221.708 123.084 221.612 122.946 221.57C122.809 221.529 122.658 221.529 122.534 221.598C122.492 221.625 122.465 221.639 122.424 221.667C122.327 221.735 122.259 221.845 122.231 221.969Z" fill="black"/>
<path fill-rule="evenodd" clip-rule="evenodd" d="M25.6269 195.604C27.6348 190.474 36.1755 185.894 39.8614 193.252L40.0677 193.871C40.2328 193.83 41.6906 195.288 41.8006 197.419C43.231 198.877 43.4923 200.761 43.1759 202.549L43.561 202.769C46.3942 204.42 45.8028 211.585 42.6121 211.475C42.6671 214.817 35.1991 216.949 33.865 215.684C29.2302 212.094 23.0825 202.095 25.6269 195.604Z" fill="#FDD89E"/>
<path fill-rule="evenodd" clip-rule="evenodd" d="M41.7734 194.984C42.1585 195.741 42.296 196.566 42.3373 197.198V197.336C42.8049 197.735 43.1212 198.244 43.3412 198.766C43.6026 199.413 43.7263 200.1 43.7676 200.719C43.7951 201.077 43.7951 201.407 43.7814 201.696C43.7539 202.177 43.6988 202.535 43.6851 202.631V202.645L43.6714 202.686V202.7L43.6301 202.755V202.768L43.6163 202.782L43.5888 202.796L43.5751 202.81L43.5613 202.823L43.5338 202.837L43.52 202.851C43.5063 202.865 43.4926 202.865 43.4651 202.865L43.4375 202.878H43.4238H43.3963H43.3825C43.355 202.878 43.3413 202.865 43.3138 202.865H43.3L43.245 202.837C42.4198 202.356 41.6084 202.26 40.8794 202.342C39.4079 202.507 38.3213 203.401 38.2938 203.415C38.1838 203.511 38.0462 203.539 37.9225 203.539C37.7849 203.525 37.6612 203.47 37.5649 203.36C37.4686 203.25 37.4411 203.112 37.4411 202.988C37.4549 202.865 37.5099 202.727 37.6199 202.645C37.6337 202.631 38.9677 201.531 40.7694 201.338C41.4846 201.256 42.2685 201.324 43.0662 201.641C43.08 201.311 43.0937 200.912 43.0524 200.472C42.9699 199.55 42.6674 198.491 41.8697 197.886L41.8421 197.872C41.8146 197.845 41.7734 197.831 41.7459 197.804C41.1545 197.405 40.3981 197.363 39.6554 197.487C38.2251 197.721 36.8635 198.546 36.6572 198.656L36.6297 198.67C36.5059 198.752 36.3684 198.766 36.2446 198.739C36.1346 198.711 36.0246 198.656 35.942 198.546L35.9145 198.505C35.832 198.381 35.8183 198.244 35.8458 198.12C35.8733 197.996 35.9558 197.872 36.0658 197.79C36.1621 197.721 37.785 196.69 39.5454 196.428C40.2193 196.332 40.9207 196.346 41.5671 196.566C41.5121 196.194 41.4021 195.809 41.2508 195.452C41.0307 194.97 40.7006 194.516 40.2055 194.186C39.6141 193.788 38.8577 193.746 38.115 193.87C36.5747 194.118 35.1168 195.053 35.0893 195.067L35.0756 195.08C34.9518 195.149 34.828 195.177 34.7042 195.149C34.5804 195.122 34.4567 195.053 34.3879 194.929V194.915C34.3192 194.792 34.2916 194.654 34.3191 194.53C34.3466 194.406 34.4292 194.283 34.5392 194.214C34.6355 194.145 36.2583 193.114 38.0188 192.852C38.954 192.715 39.9442 192.797 40.7694 193.347C41.0582 193.87 41.4846 194.406 41.7734 194.984ZM42.9562 211.117C43.0387 211.199 43.1075 211.323 43.1075 211.447V211.502C43.1075 211.639 43.0387 211.777 42.9424 211.859C42.8462 211.942 42.7224 211.997 42.5711 211.997C41.347 211.956 40.5356 211.502 39.9992 210.938C39.7654 210.69 39.6004 210.429 39.4629 210.154C38.9953 210.236 38.4038 210.346 38.1013 210.346C37.9775 210.36 37.8537 210.319 37.7574 210.25C37.6612 210.181 37.5787 210.058 37.5649 209.934L37.5511 209.879C37.5374 209.755 37.5787 209.631 37.6474 209.535C37.7162 209.439 37.84 209.356 37.9638 209.342C38.2663 209.274 38.6927 209.219 39.1053 209.164C38.9815 208.614 38.9953 208.187 38.9953 208.173C38.9953 208.036 39.064 207.898 39.1603 207.816C39.2566 207.72 39.3941 207.678 39.5316 207.678C39.6691 207.678 39.8067 207.747 39.8892 207.843C39.9717 207.94 40.0268 208.063 40.0268 208.215C40.0268 208.256 40.013 208.779 40.2193 209.356C40.2468 209.397 40.2605 209.452 40.2743 209.508C40.3843 209.769 40.5356 210.016 40.7419 210.25C41.1132 210.663 41.7046 210.965 42.6123 211.007C42.7499 210.965 42.8736 211.02 42.9562 211.117Z" fill="black"/>
<path fill-rule="evenodd" clip-rule="evenodd" d="M191.559 199.743C193.499 189.799 191.958 172.319 189.373 162.981C206.028 171.604 226.726 203.979 230.316 214.968C231.444 218.434 231.279 223.646 228.886 226.576C217.759 240.287 177.036 238.885 150.699 233.287C146.05 230.963 147.15 219.52 148.718 214.473C149.653 211.461 153.284 210.429 156.75 210.195L199.151 207.362L191.559 199.743Z" fill="#2F2483"/>
<path fill-rule="evenodd" clip-rule="evenodd" d="M16.1213 213.537L24.9784 213.812L33.8217 214.087L36.2973 222.587L38.7729 231.086L31.4562 236.065L24.1394 241.044L17.1391 235.625L10.1387 230.206L11.3902 226.726L19.7522 229.326L24.5796 225.86L23.9332 220.345L15.2549 215.944L16.1213 213.537Z" fill="#009EE3"/>
<path fill-rule="evenodd" clip-rule="evenodd" d="M60.189 213.278L106.565 201.34C111.64 200.034 114.514 203.499 115.436 208.657L121.831 244.058C122.766 249.215 119.782 251.044 114.817 252.708C101.009 257.343 86.0589 260.96 70.614 261.896C65.3878 262.212 62.5546 261.359 60.9455 254.166L55.1554 224.047C54.1514 218.889 55.1141 214.584 60.189 213.278Z" fill="#FF8002"/>
<path fill-rule="evenodd" clip-rule="evenodd" d="M85.1519 219.589C92.5374 218.173 99.6615 223 101.092 230.386C102.508 237.771 97.6811 244.895 90.2956 246.326C82.9101 247.742 75.7859 242.915 74.3556 235.529C72.939 228.144 77.7801 221.006 85.1519 219.589Z" fill="#009EE3"/>
<path d="M159.803 73.0353C168.196 73.0353 175 66.2312 175 57.8379C175 49.4447 168.196 42.6406 159.803 42.6406C151.41 42.6406 144.605 49.4447 144.605 57.8379C144.605 66.2312 151.41 73.0353 159.803 73.0353Z" fill="#EF7C00"/>
<path fill-rule="evenodd" clip-rule="evenodd" d="M79.196 313.909C74.4649 306.138 69.1837 279.704 66.1992 265.855L90.2123 263.146C96.8552 277.133 106.62 295.122 108.779 305.162C109.302 310.539 90.0611 317.017 82.7718 316.315C80.8189 316.137 80.2963 315.71 79.196 313.909Z" fill="#009EE3"/>
<path fill-rule="evenodd" clip-rule="evenodd" d="M122.779 290.033C117.581 288.974 108.93 273.97 101.943 259.501L124.155 252.845C125.544 255.747 128.033 260.877 129.972 264.356C132.517 263.751 145.637 255.967 149.956 256.544C155.278 258.236 160.367 276.789 158.854 279.182C156.832 282.469 129.904 291.821 122.779 290.033Z" fill="#009EE3"/>
<path fill-rule="evenodd" clip-rule="evenodd" d="M66.1992 265.855C66.9832 269.444 67.7121 273.02 68.496 276.61C69.3212 280.365 70.2014 284.119 71.0128 287.888L77.4906 286.072L76.019 279.787L87.558 276.431L90.2123 282.097L97.9691 278.989L90.2123 263.146L66.1992 265.855Z" fill="#FF8002"/>
<path fill-rule="evenodd" clip-rule="evenodd" d="M101.943 259.501C103.608 262.857 105.258 266.227 107.046 269.527C108.71 272.608 110.443 275.689 112.341 278.701L115.256 275.386L113.07 272.512L119.355 265.842L123.646 268.166L129.986 264.356L124.169 252.845L101.943 259.501Z" fill="#FF8002"/>
<path fill-rule="evenodd" clip-rule="evenodd" d="M70.8203 287.145L76.5829 285.536L75.1113 279.264L87.9706 275.523L90.5975 281.121L97.6941 278.274L98.258 279.691L89.8273 283.074L87.1454 277.353L76.9267 280.323L78.4121 286.609L71.2329 288.617L70.8203 287.145Z" fill="black"/>
<path fill-rule="evenodd" clip-rule="evenodd" d="M111.764 278.206L114.267 275.345L112.053 272.457L119.19 264.879L123.619 267.272L129.574 263.696L130.358 265.003L123.646 269.033L119.493 266.777L114.06 272.553L116.233 275.414L112.919 279.21L111.764 278.206Z" fill="black"/>
<path fill-rule="evenodd" clip-rule="evenodd" d="M100.47 389.016C102.918 389.016 104.912 387.022 104.912 384.574C104.912 382.126 102.918 380.132 100.47 380.132C98.0216 380.132 96.0274 382.126 96.0274 384.574C96.0137 387.022 98.0216 389.016 100.47 389.016Z" fill="white"/>
<path fill-rule="evenodd" clip-rule="evenodd" d="M149.42 384.684C151.249 384.684 152.748 382.937 152.748 380.805C152.748 378.673 151.249 376.927 149.42 376.927C147.591 376.927 146.092 378.673 146.092 380.805C146.092 382.937 147.591 384.684 149.42 384.684Z" fill="white"/>
<path fill-rule="evenodd" clip-rule="evenodd" d="M94.4483 227.236C95.0259 228.061 94.9022 228.776 94.077 229.354L87.1729 234.195L95.4523 235.487C95.8511 235.556 96.1537 235.694 96.36 235.914H96.3875L96.4013 235.955C96.6626 236.258 96.7313 236.698 96.6213 237.248C96.4288 238.238 95.8374 238.609 94.8471 238.458L84.1746 236.794L84.7385 239.283C84.9586 240.274 84.5735 240.893 83.597 241.113C82.6068 241.333 82.0016 240.948 81.7816 239.957C80.7913 235.515 79.8836 231.458 78.8109 226.603C78.5908 225.64 78.9897 225.049 79.9661 224.829C80.9426 224.609 81.534 224.994 81.7541 225.956L83.3632 233.163L92.344 226.864C93.183 226.273 93.8706 226.41 94.4483 227.236Z" fill="white" stroke="white" stroke-width="1.94925" stroke-miterlimit="22.9256"/>
<path fill-rule="evenodd" clip-rule="evenodd" d="M155.321 58.5258L163.339 57.8794C164.385 57.7969 164.866 57.2192 164.783 56.1465L164.522 52.942C164.44 51.8692 163.862 51.3879 162.789 51.4704L154.826 52.103L155.321 58.5258ZM154.207 48.9398L159.667 48.4997L162.528 48.2659C165.732 48.0046 167.465 49.4762 167.727 52.6944L167.988 55.8989C168.249 59.1034 166.778 60.8363 163.587 61.0839L155.569 61.7303L155.789 64.9073L155.858 65.705C155.94 66.764 155.459 67.3554 154.4 67.4379C153.382 67.5204 152.722 66.9565 152.639 65.9113L151.608 52.0205C151.484 50.3564 152.777 49.0498 154.207 48.9398Z" fill="white" stroke="white" stroke-width="1.94925" stroke-miterlimit="22.9256"/>
<path fill-rule="evenodd" clip-rule="evenodd" d="M99.0547 384.794L101.572 384.588C101.902 384.56 102.053 384.381 102.025 384.051L101.943 383.047C101.915 382.717 101.737 382.552 101.393 382.58L98.8897 382.786L99.0547 384.794ZM98.7109 381.768L100.43 381.631L101.338 381.562C102.342 381.48 102.892 381.947 102.974 382.951L103.057 383.955C103.139 384.959 102.672 385.509 101.668 385.592L99.151 385.798L99.2198 386.802L99.2335 387.05C99.261 387.38 99.1097 387.572 98.7797 387.6C98.4633 387.627 98.257 387.448 98.2295 387.118L97.8995 382.745C97.8445 382.222 98.2571 381.81 98.7109 381.768Z" fill="black" stroke="black" stroke-width="0.779671" stroke-miterlimit="22.9256"/>
<path fill-rule="evenodd" clip-rule="evenodd" d="M148.278 380.981L150.327 380.816C150.588 380.789 150.712 380.651 150.698 380.376L150.629 379.565C150.602 379.29 150.464 379.166 150.189 379.193L148.154 379.358L148.278 380.981ZM147.989 378.533L149.378 378.423L150.107 378.368C150.918 378.299 151.358 378.685 151.427 379.496L151.496 380.307C151.565 381.119 151.193 381.559 150.368 381.628L148.319 381.793L148.374 382.604L148.388 382.81C148.415 383.086 148.291 383.237 148.016 383.251C147.755 383.264 147.59 383.127 147.576 382.866L147.315 379.317C147.301 378.891 147.631 378.561 147.989 378.533Z" fill="black" stroke="black" stroke-width="0.779671" stroke-miterlimit="22.9256"/>
</svg>
