<svg width="185" height="421" viewBox="0 0 185 421" fill="none" xmlns="http://www.w3.org/2000/svg">
<path d="M89.7068 300.18V-14" stroke="#FBFFFF" stroke-width="2.65256" stroke-miterlimit="10" stroke-linecap="round" stroke-linejoin="round"/>
<path d="M130.598 380.441C158.549 358.354 163.303 317.789 141.215 289.837C119.128 261.885 78.5627 257.132 50.611 279.219C22.6593 301.307 17.9057 341.872 39.9934 369.824C62.0811 397.776 102.646 402.529 130.598 380.441Z" fill="#FF953B"/>
<path d="M108.024 378.991C101.936 383.333 96.7282 388.702 91.6816 394.277C96.6109 394.189 101.613 393.558 106.587 392.282C113.276 390.566 119.438 387.866 124.983 384.375C133.888 372.976 142.368 359.949 138.392 352.775C132.627 347.596 122.343 368.765 108.024 378.991Z" fill="#FDD89E"/>
<path d="M153.088 313.795C151.665 308.206 149.523 302.983 146.838 298.186C119.082 313.165 82.4206 335.361 79.1344 330.754C73.1196 322.319 104.822 296.03 109.487 292.025C112.818 289.164 120.431 283.706 128.163 277.369C123.776 274.229 118.994 271.647 113.947 269.682C98.558 279.496 83.4328 289.692 68.3077 299.903C54.4296 309.277 40.038 318.328 26.1011 327.967C25.9398 333.835 26.5559 339.806 28.0817 345.777C29.4607 351.146 31.4705 356.178 34.0085 360.814C44.087 355.415 55.8526 349.107 58.7133 351.483C61.0166 353.405 53.3293 364.408 44.6151 375.015C51.4515 381.954 59.7843 387.279 68.9386 390.551C94.0982 368.09 129.674 337.106 153.293 314.646C153.22 314.367 153.161 314.074 153.088 313.795Z" fill="#FDD89E"/>
<path d="M154.701 337.003C154.921 335.096 155.038 333.159 155.082 331.223C139.575 338.661 118.788 345.893 96.1953 351.673C73.6029 357.453 51.8909 361.091 34.7266 362.016C35.7095 363.703 36.751 365.346 37.866 366.93C55.2063 365.742 76.5957 361.928 97.4569 356.588C119.125 351.042 139.209 344.162 154.701 337.003Z" fill="#F3BB44"/>
<path d="M150.996 307.121C151.613 308.764 152.155 310.437 152.64 312.153C172.4 311.376 178.621 314.779 179.164 316.936C179.721 319.092 175.863 325.122 157.936 333.997C142.253 341.758 120.673 349.357 97.1563 355.372C73.6398 361.387 51.0621 365.098 33.5751 365.817C13.5794 366.639 7.31515 363.206 6.75768 361.049C6.21487 358.907 10.0292 352.922 27.7216 344.12C27.3255 342.403 26.9881 340.672 26.7387 338.956C26.4013 339.117 26.0492 339.279 25.7264 339.455C8.21003 348.125 0.170684 355.827 1.8431 362.326C5.42267 376.306 53.1306 371.891 98.4033 360.316C122.257 354.213 144.189 346.496 160.18 338.574C177.697 329.904 185.736 322.202 184.078 315.718C182.274 308.632 169.261 306.256 150.996 307.121Z" fill="#FBFFFF"/>
</svg>
