<svg width="771" height="541" viewBox="0 0 771 541" fill="none" xmlns="http://www.w3.org/2000/svg">
<path d="M198.997 -9.98127L0.31862 -14.5713C38.797 8.40389 27.3038 308.479 279.797 265.483C416.907 298.716 310.542 353.605 431.304 450.109C489.859 496.889 612 433.5 648.5 484C707.5 565.63 368.891 848.299 368.891 848.299L484.962 907.424C558.567 813.578 840.434 667.637 882.668 613.235C950.381 526.004 833.789 485.304 865.856 409.045C896.156 336.952 1158.29 263.019 1102.22 185.308C930.941 -52.0439 1134.33 -15.3026 1133.42 -55.5968C1132.83 -82.225 1144.59 -94.6472 1159.41 -106.785L199.001 -9.99998L198.997 -9.98127Z" fill="white" fill-opacity="0.2"/>
</svg>
