<svg width="98" height="40" viewBox="0 0 98 40" fill="none" xmlns="http://www.w3.org/2000/svg">
<path fill-rule="evenodd" clip-rule="evenodd" d="M43.9648 10.6907C43.9648 9.56067 44.5319 8.99364 45.6618 8.99364H54.1673C55.2973 8.99364 55.8643 8.42661 55.8643 7.29662C55.8521 6.16664 55.2851 5.59961 54.1673 5.59961H43.9648C41.713 5.59961 40.583 6.7296 40.5708 8.99364V15.7817C40.5708 18.0417 41.7008 19.1757 43.9648 19.1757L52.4499 19.1594C54.7099 19.1594 55.8521 18.0294 55.8602 15.7654V14.0847C55.8602 11.8206 54.7262 10.6907 52.4662 10.6907H43.9648ZM51.1975 13.4034C52.042 13.4034 52.4703 14.1418 52.4703 14.7047C52.4703 15.2718 52.1562 16.0101 51.3933 16.0101H45.6659C44.5359 16.0101 43.9689 14.5334 43.9689 13.4075H51.1975V13.4034Z" fill="#E40023" stroke="#E40023" stroke-width="0.578168" stroke-miterlimit="22.9256"/>
<path fill-rule="evenodd" clip-rule="evenodd" d="M20.9698 15.7441C20.9698 17.8083 21.908 18.9301 23.7886 19.1137L23.8825 19.1422H24.3638H32.5144H34.5459C36.8059 19.1422 37.9399 18.0245 37.9399 15.7808V15.7441V8.98868V8.95197C37.9399 6.70832 36.8059 5.59058 34.5459 5.59058H32.5144H26.0853H24.3638H23.8825L23.7886 5.61913C21.908 5.8027 20.9698 6.92453 20.9698 8.98868V15.7441ZM24.8656 15.4014L24.837 15.377C24.8166 15.3606 24.8003 15.3443 24.784 15.328L24.7595 15.3035L24.735 15.275L24.7106 15.2464L24.6861 15.2179L24.6616 15.1893L24.6412 15.1608L24.6208 15.1281L24.6004 15.0955L24.58 15.0628L24.5596 15.0302L24.5433 14.9976L24.527 14.9609L24.5107 14.9242L24.4944 14.8874L24.478 14.8507L24.4658 14.814L24.4536 14.7732L24.4413 14.7324L24.4291 14.6916L24.4168 14.6508L24.4087 14.61L24.4005 14.5652L24.3924 14.5203L24.3842 14.4754L24.3761 14.4306L24.372 14.3857L24.3679 14.3367L24.3638 14.2878L24.3597 14.2388L24.3557 14.1899V14.1409V14.0879V10.6571V10.6041V10.5552L24.3597 10.5062L24.3638 10.4573L24.3679 10.4083L24.372 10.3593L24.3761 10.3145L24.3842 10.2696L24.3924 10.2247L24.4005 10.1799L24.4087 10.135L24.4168 10.0942L24.4291 10.0534L24.4413 10.0126L24.4536 9.97181L24.4658 9.93102L24.478 9.8943L24.4944 9.85759L24.5107 9.82087L24.527 9.78416L24.5433 9.74745L24.5596 9.71481L24.58 9.68217L24.6004 9.64138L24.6208 9.60875L24.6412 9.57611L24.6616 9.54755L24.6861 9.519L24.7106 9.49044L24.735 9.46189L24.7595 9.43333L24.784 9.40886C24.8003 9.39254 24.8207 9.37622 24.837 9.3599L24.8656 9.33543C24.8941 9.31095 24.9227 9.29055 24.9553 9.27016C25.2246 9.08659 25.5876 8.99684 26.0404 8.99684H32.8285C33.9585 8.99684 34.5337 9.56387 34.5418 10.6939V14.0553C34.5296 15.1852 33.9585 15.7523 32.8285 15.7523H26.0445C25.5917 15.7523 25.2286 15.6625 24.9594 15.4789C24.9268 15.4504 24.8941 15.4259 24.8656 15.4014Z" fill="#E40023" stroke="#E40023" stroke-width="0.578168" stroke-miterlimit="22.9256"/>
<path fill-rule="evenodd" clip-rule="evenodd" d="M75.1798 19.1757H63.317C59.923 19.1757 58.2178 17.4787 58.2056 14.0847V7.29662C58.2056 6.16664 58.7726 5.59961 59.9026 5.59961C61.0366 5.59961 61.5996 6.16664 61.5996 7.29662L61.6159 14.0847C61.6159 15.2147 62.1789 15.7817 63.2966 15.7817H71.7817V7.29662C71.7817 6.16664 72.3446 5.59961 73.4624 5.59961C74.5924 5.59961 75.1594 6.16664 75.1594 7.29662L75.1798 19.1757Z" fill="#E40023" stroke="#E40023" stroke-width="0.578168" stroke-miterlimit="22.9256"/>
<path fill-rule="evenodd" clip-rule="evenodd" d="M35.6104 39.0248C34.6395 39.6 33.8603 39.3961 33.2851 38.4252L28.4266 30.2257L23.5681 38.4252C22.9929 39.3961 22.2178 39.6 21.2429 39.0248C20.272 38.4537 20.0599 37.6827 20.6269 36.7322L26.7255 26.44C27.1743 25.6853 27.7413 25.3957 28.4266 25.5711C29.112 25.3957 29.6831 25.6853 30.1277 26.44L36.2264 36.7322C36.7934 37.6827 36.5813 38.4537 35.6104 39.0248Z" fill="#FF953B" stroke="#FF953B" stroke-width="0.578168" stroke-miterlimit="22.9256"/>
<path fill-rule="evenodd" clip-rule="evenodd" d="M54.5754 39.0849H42.7126C39.3186 39.0849 37.6134 37.3879 37.6052 33.9939V27.2058C37.6052 26.0758 38.1723 25.5088 39.3022 25.5088C40.4363 25.5088 40.9993 26.0758 40.9993 27.2058L41.0156 33.9939C41.0156 35.1238 41.5785 35.6909 42.6963 35.6909H51.1813V27.2058C51.1813 26.0758 51.7443 25.5088 52.862 25.5088C53.992 25.5088 54.559 26.0758 54.559 27.2058L54.5754 39.0849Z" fill="#FF953B" stroke="#FF953B" stroke-width="0.578168" stroke-miterlimit="22.9256"/>
<path fill-rule="evenodd" clip-rule="evenodd" d="M94.8754 6.67207C95.3078 7.71639 95.0018 8.45883 93.9616 8.89125L85.2399 12.4974L93.9738 15.9281C94.4022 16.0954 94.6959 16.3279 94.8672 16.6135L94.8999 16.6257V16.6706C95.1038 17.0663 95.0794 17.564 94.8305 18.1432C94.3818 19.1794 93.6516 19.4405 92.5991 19.0285L81.3441 14.6105L81.3605 17.462C81.3605 18.6042 80.7934 19.1753 79.6634 19.1753C78.5335 19.1753 77.9664 18.6083 77.9664 17.4783V14.8838C77.6768 14.7084 77.4443 14.4025 77.2607 13.966C76.8568 12.9951 77.0934 12.2853 77.9664 11.8406V2.16438C77.9664 1.05887 78.5335 0.5 79.6634 0.5C80.7812 0.5 81.3441 1.05479 81.3441 2.16438V10.4332L92.6929 5.7379C93.7128 5.32181 94.443 5.62776 94.8754 6.67207Z" fill="#E40023" stroke="#E40023" stroke-width="0.578168" stroke-miterlimit="22.9256"/>
<path fill-rule="evenodd" clip-rule="evenodd" d="M3.08973 20.3704C4.20747 20.3704 4.77042 20.9252 4.77042 22.0347V30.3077L16.1192 25.6123C17.1431 25.1881 17.8733 25.4981 18.3057 26.5384C18.7381 27.5827 18.4363 28.3251 17.392 28.7575L8.67029 32.3637L17.4042 35.7944C17.8325 35.9617 18.1262 36.1942 18.2976 36.4798L18.3302 36.492V36.5369C18.5342 36.9326 18.5097 37.4302 18.2609 38.0095C17.8121 39.0457 17.0819 39.3068 16.0295 38.8947L4.7745 34.4768L4.79082 37.3283C4.79082 38.4705 4.22379 39.0416 3.09381 39.0416C1.96382 39.0416 1.39679 38.4746 1.39679 37.3446V34.7501C1.10716 34.5747 0.870555 34.2687 0.691063 33.8323C0.287206 32.8614 0.523809 32.1516 1.39679 31.7069V22.0307C1.39271 20.9252 1.95974 20.3704 3.08973 20.3704Z" fill="#FF953B" stroke="#FF953B" stroke-width="0.578168" stroke-miterlimit="22.9256"/>
<path fill-rule="evenodd" clip-rule="evenodd" d="M58.9196 20.3704C60.0374 20.3704 60.6003 20.9252 60.6003 22.0347V30.3077L71.9491 25.6123C72.973 25.1881 73.7032 25.4981 74.1356 26.5384C74.568 27.5827 74.2621 28.3251 73.2219 28.7575L64.5002 32.3637L73.2341 35.7944C73.6624 35.9617 73.9561 36.1942 74.1275 36.4798L74.1601 36.492V36.5369C74.3641 36.9326 74.3396 37.4302 74.0908 38.0095C73.642 39.0457 72.9118 39.3068 71.8594 38.8947L60.6044 34.4768L60.6207 37.3283C60.6207 38.4705 60.0537 39.0416 58.9237 39.0416C57.7937 39.0416 57.2267 38.4746 57.2267 37.3446V34.7501C56.9371 34.5747 56.7005 34.2687 56.521 33.8323C56.1171 32.8614 56.3537 32.1516 57.2267 31.7069V22.0307C57.2226 20.9252 57.7896 20.3704 58.9196 20.3704Z" fill="#FF953B" stroke="#FF953B" stroke-width="0.578168" stroke-miterlimit="22.9256"/>
<path fill-rule="evenodd" clip-rule="evenodd" d="M83.4612 37.3461C84.5953 37.0279 85.0032 36.2977 84.685 35.1677L83.0573 29.3097L91.8524 38.4475C92.6683 39.296 93.4923 39.3368 94.349 38.5332C95.2098 37.7295 95.2587 36.8892 94.4592 36.0611L85.0807 26.3196L91.6893 27.8697C92.8356 28.1389 93.5454 27.7025 93.8187 26.5562C94.0879 25.4099 93.6637 24.7 92.5419 24.4349L80.4058 21.5916C80.365 21.5834 80.3282 21.5753 80.2875 21.5671C79.7163 21.3183 79.133 21.4692 78.5333 22.0281C78.1335 22.4034 77.9092 22.7868 77.8725 23.1784C77.8235 23.4599 77.848 23.7822 77.95 24.1493L81.2869 36.159C81.5969 37.2686 82.3271 37.6643 83.4612 37.3461Z" fill="#009EE3"/>
<path fill-rule="evenodd" clip-rule="evenodd" d="M4.7829 15.7822H13.2802C14.3857 15.7822 14.9446 15.2152 14.9446 14.0852V10.6912C14.9446 9.56118 14.3776 8.99415 13.2476 8.99415H4.81145L4.7829 15.7822ZM3.12668 5.15139C3.70595 5.15139 4.13836 5.30233 4.41983 5.60012H13.2476C16.6416 5.60012 18.3386 7.29714 18.3386 10.6912V14.0852C18.3386 17.4792 16.6457 19.1762 13.2639 19.1762H4.77066L4.75842 21.7258V22.5703C4.75842 23.7002 4.19547 24.2673 3.07773 24.2673C2.77585 24.2673 2.57188 24.2265 2.43319 24.1449C1.71522 23.9613 1.35216 23.4147 1.35624 22.5172L1.4215 6.80761C1.42966 5.70211 1.99669 5.14731 3.12668 5.15139Z" fill="#E40023" stroke="#E40023" stroke-width="0.578168" stroke-miterlimit="22.9256"/>
</svg>
