<svg width="142" height="142" viewBox="0 0 142 142" fill="none" xmlns="http://www.w3.org/2000/svg">
<path d="M70.9374 141.875C110.115 141.875 141.875 110.115 141.875 70.9374C141.875 31.7597 110.115 0 70.9374 0C31.7598 0 0 31.7597 0 70.9374C0 110.115 31.7598 141.875 70.9374 141.875Z" fill="#FFBF3B"/>
<path d="M55.7485 1.43164C27.3093 7.03126 5.99105 29.8722 0.765625 58.4316C7.1671 57.9104 8.57266 62.9205 13.4506 66.6358C26.7213 76.7258 32.214 68.5335 44.9501 65.6201C56.0024 63.0943 68.6984 69.2552 74.3247 54.8752C79.176 42.4732 66.4131 33.4925 64.502 22.3467C62.7246 11.8557 61.3748 5.92203 55.7485 1.43164Z" fill="#FFD980"/>
<path d="M139.373 89.5931C138.504 89.1521 137.568 88.6576 136.553 87.9493C132.436 85.0893 128.253 82.6704 123.95 79.3561C120.916 77.0173 118.685 74.6385 114.702 74.2509C104.118 73.2486 100.469 82.7506 95.9521 89.7936C90.0718 98.9481 81.1579 104.32 79.768 115.386C78.8993 122.362 77.7233 133.187 77.9504 141.5C107.539 138.613 131.768 117.538 139.373 89.5931Z" fill="#FFD980"/>
<path d="M41.888 86.4121C18.2333 86.3721 26.3855 116.522 43.0106 121.426C53.3813 124.487 63.2709 117.751 63.8589 107.153C64.6607 92.5597 52.1117 90.5551 41.888 86.4121Z" fill="#FFD980"/>
<path d="M106.033 35.6289C105.111 35.8026 104.095 37.2193 103.801 37.9676C102.264 41.8166 102.652 46.641 106.421 49.0733C109.374 50.9711 115.388 51.8264 116.831 47.6434C117.473 45.7857 117.366 43.5806 116.698 41.7631C115.174 37.6068 111.793 36.3639 107.824 35.6289H106.033Z" fill="#FFD980"/>
</svg>
