<svg width="168" height="166" viewBox="0 0 168 166" fill="none" xmlns="http://www.w3.org/2000/svg">
<path d="M118.971 128.643C144.434 108.522 148.764 71.5684 128.643 46.1052C108.522 20.6421 71.5683 16.3116 46.1051 36.4329C20.642 56.5542 16.3115 93.5077 36.4328 118.971C56.5541 144.434 93.5076 148.764 118.971 128.643Z" fill="#FFBF3B"/>
<path d="M98.4073 127.321C92.8611 131.277 88.1168 136.169 83.5195 141.247C88.0099 141.167 92.5671 140.592 97.0976 139.43C103.192 137.866 108.805 135.407 113.856 132.226C121.968 121.842 129.693 109.975 126.071 103.44C120.819 98.722 111.451 118.007 98.4073 127.321Z" fill="#FFE297"/>
<path d="M139.46 67.9295C138.163 62.8377 136.212 58.08 133.766 53.7099C108.481 67.3548 75.084 87.5749 72.0904 83.3785C66.611 75.6941 95.4912 51.7453 99.741 48.0969C102.775 45.4909 109.711 40.5194 116.754 34.746C112.758 31.8861 108.401 29.534 103.804 27.7432C89.7846 36.6838 76.0061 45.972 62.2275 55.2735C49.585 63.8133 36.4746 72.059 23.7786 80.8393C23.6316 86.185 24.1929 91.6242 25.5828 97.0635C26.839 101.955 28.6699 106.539 30.982 110.762C40.1632 105.844 50.8813 100.097 53.4873 102.262C55.5855 104.013 48.5826 114.036 40.6443 123.698C46.872 130.02 54.4629 134.871 62.8022 137.851C85.7219 117.39 118.13 89.1652 139.647 68.7046C139.58 68.4506 139.526 68.1834 139.46 67.9295Z" fill="#FFE297"/>
<path d="M137.554 61.8484C138.115 63.3452 138.609 64.8687 139.05 66.4324C157.052 65.7241 162.719 68.8246 163.213 70.7891C163.721 72.7537 160.206 78.2464 143.875 86.3317C129.589 93.4014 109.93 100.324 88.5068 105.803C67.084 111.283 46.5164 114.664 30.5862 115.319C12.3707 116.067 6.6642 112.94 6.15636 110.975C5.66188 109.024 9.1366 103.572 25.2539 95.5531C24.893 93.9894 24.5856 92.4125 24.3585 90.8489C24.0511 90.9959 23.7303 91.1429 23.4363 91.3032C7.47941 99.2015 0.155804 106.218 1.67933 112.138C4.9402 124.874 48.4007 120.852 89.6428 110.307C111.373 104.748 131.353 97.7181 145.92 90.5014C161.877 82.6031 169.2 75.5869 167.69 69.6799C166.046 63.225 154.192 61.0599 137.554 61.8484Z" fill="#FBFFFF"/>
</svg>
